<svg id="Capa_1" data-name="Capa 1" xmlns="http://www.w3.org/2000/svg" viewBox="0 0 571.54 215.84"><defs><style>.cls-1{fill:#6e777f;}</style></defs><title>duder-footer</title><path class="cls-1" d="M576.42,116c-1.72-17.22-7.95-29.33-18.51-36-13.81-8.71-29.93-4.47-32.33-3.77h0l-.28.08-.16.06-.45.17-.28.12-.4.19-.31.18a3.37,3.37,0,0,0-.32.19l-.34.23-.26.2-.34.27-.23.21-.31.3-.22.24-.27.31c-.07.09-.15.18-.22.28l-.22.31a3.45,3.45,0,0,0-.2.32l-.18.3-.19.36c0,.1-.09.2-.14.3l-.15.37-.12.33c0,.12-.08.24-.11.36s-.07.25-.1.38l-.06.32c0,.15-.05.3-.07.45l0,.28c0,.16,0,.33,0,.49a.86.86,0,0,0,0,.16v.1a3.59,3.59,0,0,0,0,.47,3,3,0,0,0,0,.31c0,.13,0,.26.07.4s0,.23.07.35a.7.7,0,0,0,0,.14,2,2,0,0,0,.06.23c0,.11.07.22.11.32s.1.28.15.41a2.29,2.29,0,0,0,.1.23,4.16,4.16,0,0,0,.24.47l.06.12c.11.18.22.35.34.52l0,0a7.12,7.12,0,0,0,1.44,1.46h0c.18.14.36.26.55.38l0,0a4.14,4.14,0,0,0,.55.29l.1,0,.53.22.15,0a4.44,4.44,0,0,0,.52.15l.18,0,.52.1.2,0,.53,0h.22l.53,0h.14c9.88-.72,12.93,3.73,14.38,7.14,7.4,17.5-8.13,64.23-31.78,89-7.93,8.3-23.43,21.44-38.12,16.18a7.89,7.89,0,0,1-5.21-5c-5.49-15,13.75-59.07,29.54-90.24,18.62-36.76,34-64.09,29.39-77.28-1.4-4-6.4-6.38-10.3-7.9l-.23-.08-36-12.59a7.69,7.69,0,0,0-6.48.76,8.24,8.24,0,0,0-3.85,5.47C464,40.3,451.42,73.23,437.6,100.51c-4,8-8.21,15.42-12.3,22-9.19,14.29-17.22,19.23-19.79,18.54-1.56-.42-4.74-4.78-5.18-17.93a1.1,1.1,0,0,1,.53-1c13.8-8.26,23.91-21.32,29.34-29.57,10.72-16.27,16.95-34,16.26-46.32,0-.54-.08-1.07-.14-1.59v-.09c-1.12-9.86-7.06-15.81-16.16-16-14.43-.34-34.23,6.86-46.83,43A105.71,105.71,0,0,0,380,83.47a1.84,1.84,0,0,0-.09.25,376.6,376.6,0,0,1-13.37,35.92c-8.19,18.64-14.12,26.38-17.56,29.6a1.08,1.08,0,0,1-1.83-.69c-.39-5.06.58-16.33,9-39.88,18.5-51.94,34.82-86.71,35-87a7.41,7.41,0,0,0-.25-7,6.86,6.86,0,0,0-5.07-3.24c-.34-.08-1.4-.36-4.07-1.2C372.5,7.28,362.07,12.58,358.48,22q-6.19,16.2-11.25,30.89a7.34,7.34,0,0,0-1.07-.46A50.08,50.08,0,0,0,308,57.35c-15.59,9-26.64,26.24-32.85,51.19q-1.31,5.28-2.18,10s0,0,0,.08c-.63,2.3-1.27,4.75-1.94,7.3-3.53,13.43-9.82,37.42-18,43.66a1.09,1.09,0,0,1-1.73-.72c-.7-4.57-.72-16.25,6.12-44.42,5.24-21.58,11.84-41.75,11.9-41.95a7.28,7.28,0,0,0-.51-5.88,6.77,6.77,0,0,0-4.69-3.34l-15.73-3a7.84,7.84,0,0,0-6,1.35,8.23,8.23,0,0,0-3,4.05,7.88,7.88,0,0,0-.67,2c-6.34,35.15-20.94,88.57-33.53,97.3l-.26.16-1.64-.66c-.29-1.3-.52-3.94.17-9,.9-6.65,3-15,5.19-23.79,4.1-16.35,8.34-33.25,7.25-46.87-.75-9.33-4.12-14-11.62-16l-6.48-1.76a7.81,7.81,0,0,0-6.88,1.52,8.09,8.09,0,0,0-3.1,6.41c.37,19-3.76,38.49-7.4,55.7-4.86,23-8.7,41.12.16,50.64,3.47,3.72,8.44,5.6,14.8,5.6a38.49,38.49,0,0,0,5.4-.41c11.12-1.57,20.93-12.81,30.19-34.89A1.08,1.08,0,0,1,233,162c1.22,9.58,3.51,14.72,5.85,17.82a14.49,14.49,0,0,0,2,2.59,11.62,11.62,0,0,0,8.53,3.54,14.74,14.74,0,0,0,2.76-.27,17.89,17.89,0,0,0,2.22-.4A7.93,7.93,0,0,0,257.1,184c7.26-3.48,12.64-10.86,16.88-19.87a1.09,1.09,0,0,1,1.94,0,29,29,0,0,0,2.45,3.8c4.05,5.28,9.51,8.31,15,8.31a14.94,14.94,0,0,0,3.13-.35,10.09,10.09,0,0,0,3.94-1.65.6.6,0,0,1,.11-.06c6-2.84,13.54-10.5,24-29.58a1.08,1.08,0,0,1,2,.46c.5,7.45,2.33,11.6,4.17,14.37a15.53,15.53,0,0,0,12.16,7.1,12.22,12.22,0,0,0,3.47.48,15.5,15.5,0,0,0,5.62-1.11c7.89-3.08,15.76-12.49,23.77-28.48a1.08,1.08,0,0,1,2,.31c1.86,11.5,5.58,21,11.67,25.63,5.73,4.39,13.12,4.3,20.27-.23C432.88,148.41,468.55,80.24,481,28.48a1.08,1.08,0,0,1,1.41-.76L492,31.07a6.06,6.06,0,0,1,3.85,7.26c-1,3.74-2.71,9.32-5.43,16.63-4.48,12-12,28.48-21.45,49.31l-3.72,8.17c-.31.69-.67,1.47-1.07,2.33-7.34,15.94-26.41,63.54-14.37,89.17,4.62,9.85,13.12,16.15,25.24,18.74a55.09,55.09,0,0,0,11.36,1.17c17.63,0,36.49-8.12,53.25-23.24C564.42,178.3,578.94,141.16,576.42,116ZM417.81,85a90.84,90.84,0,0,1-14.42,17.18,1.09,1.09,0,0,1-1.81-.94v0c3.15-25.38,14.83-44.62,24.34-51.76,2.8-2.1,4.55-2.47,5-2.44a3.07,3.07,0,0,1,.52.93,2.11,2.11,0,0,0,0,.25C432,57.1,426.47,71.89,417.81,85ZM294,160.49a1.62,1.62,0,0,1-.78-.68c-4.19-6-.16-28.87,6.16-47.45,8.72-25.64,21.68-39.73,36.17-39.73a23.64,23.64,0,0,1,3.13.22,1.1,1.1,0,0,1,.88,1.49C325.27,108.86,302.27,151.32,294,160.49Z" transform="translate(-5.17 -8.68)"/><path class="cls-1" d="M72.77,10.15C33.61,16.91,13.26,35.81,7.26,51.24,3.73,60.33,4.7,68.84,9.93,74.6c13.23,14.57,28.71,7.6,43.69.86,9.22-4.15,19.67-8.85,32.06-10.54,14.82-2,27.13,1.4,36.58,10.15,12.28,11.37,18.29,31,15.66,51.1-4.15,32-14.73,71.76-41.52,79.94-.89.27-3.87,1.1-4.84.26-.71-.61-4.13-4.63-1.83-23.61,1.61-13.31,5.34-28.79,8.63-42.46,1-4,1.9-7.87,2.7-11.38,3-13.23,1.41-24.1-4.82-32.32C88,85.66,74.93,84,73.47,83.89a8.27,8.27,0,0,0-7.23,2.94,7.22,7.22,0,0,0-1.19,7.33c2,4.85-.65,16.17-3.69,29.27C58,138,53.76,156.17,52.62,177.49c-.93,17.39,3.26,30.15,12.44,37.93,6.14,5.2,14.28,7.86,23.86,7.86a59.12,59.12,0,0,0,8.71-.68c15.08-2.27,30.87-12,43.32-26.73,16-18.88,26.1-44.66,30.14-76.63,4.85-38.47-4.93-70.71-27.54-90.78C125,12,99.85,5.48,72.77,10.15Z" transform="translate(-5.17 -8.68)"/><path class="cls-1" d="M398.41,190.72c-12.65-4.44-29.57-6.68-50.3-6.68-33.08,0-64.58,7.29-87.19,14.28A193.2,193.2,0,0,0,226.74,211c-3.62,1.75-5,5.38-3.07,8.14s6.41,3.62,10.08,1.93A293.79,293.79,0,0,1,266,209.27H266c39.77-10.33,78.84-6.43,96.4,2.58,12.94,6.64,26.84,12.68,38.63,12.68,6.15,0,11.72-1.64,16.27-5.71,3.77-3.35,4.52-8.29,2-13.21C416.36,199.68,408.92,194.4,398.41,190.72Z" transform="translate(-5.17 -8.68)"/></svg>