<svg id="Capa_1" data-name="Capa 1" xmlns="http://www.w3.org/2000/svg" viewBox="0 0 611.96 602.58"><defs><style>.cls-1,.cls-2{fill:none;}.cls-1{stroke:#000;stroke-linecap:round;stroke-linejoin:round;stroke-width:0;}.cls-1,.cls-4{opacity:0.05;}.cls-3{opacity:0.65;}.cls-4{fill:#fff;}</style></defs><title>fondo_nosotros</title><path class="cls-1" d="M616.89,106.92h0" transform="translate(-329.14 -1.18)"/><polygon class="cls-2" points="609.79 0 609.79 9.62 608.46 0 609.79 0"/><path class="cls-2" d="M930.66,594.61c.7,3,1.39,6,2.09,9.16h-8.27a59.9,59.9,0,0,0,5.7-8.25C930.35,595.22,930.5,594.92,930.66,594.61Z" transform="translate(-329.14 -1.18)"/><path class="cls-2" d="M430.9,603.77h-4.34l3.48-5.26C430.3,600.2,430.59,602,430.9,603.77Z" transform="translate(-329.14 -1.18)"/><path class="cls-2" d="M454,603.77h87.49a434.49,434.49,0,0,1-21.73-57.33c-15.63-51.78-15.44-105-15.4-109.38-.38-12.69,1.32-29,3.21-47.16.23-2.23.47-4.46.7-6.69C492,397.93,468.8,427.6,463.77,480A11.25,11.25,0,0,1,441.36,478c7.81-81.52,54.71-115.75,69.39-124.56a140.56,140.56,0,0,0-.14-19c-3.15-33.76-3.49-69.5,29.29-102.72,13.39-13.55,65.16-60.93,99.1-74.13-8.46-9.76-17.89-17.84-28.1-19.15-8.68-1.12-18,2.51-28.61,11.09a11.28,11.28,0,0,1-15.84-1.57,11.16,11.16,0,0,1,1.62-15.76c15.42-12.53,30.82-17.91,45.78-16,26.24,3.38,43.93,27.74,58.15,47.31,4.71,6.48,9.15,12.6,13,16.57,11.4,11.84,18.64,15.17,21.66,16.1,2.27-2.2,7.21-8.46,12-24.19,1.61-5.27,2.79-12.75,4-20.66,3.77-23.89,8.47-53.62,30.31-68.56,12.45-8.51,28.61-10.72,48-6.57a11.18,11.18,0,0,1,8.61,13.31,11.3,11.3,0,0,1-13.4,8.6c-13.32-2.85-23.3-1.83-30.52,3.11-8.51,5.82-13.23,17.3-16.34,29.84,36.23-3.68,103.89,15,122,21,38.5,12.76,55.58,38.6,67.62,65.82V110.39l-19.33-9.48a11.18,11.18,0,0,1-6.25-10.51c.11-2.39,1.43-23.65,15.35-36.07a33,33,0,0,1,10.23-6.21V26.91c-34.41,7.58-48.51,49.15-49.19,51.22,0,.07-.06.14-.08.22s-.13.33-.2.49a8.53,8.53,0,0,1-.39.87,5.12,5.12,0,0,1-.27.52c-.16.27-.33.53-.5.79l-.3.43a11.91,11.91,0,0,1-.92,1.08l-.21.19a10.77,10.77,0,0,1-.88.77c-.13.11-.27.2-.41.3s-.52.36-.79.52l-.48.28c-.27.14-.55.27-.83.39l-.52.22-.2.08a7.71,7.71,0,0,1-.82.24l-.31.1h-.07l-.42.08-.8.14-.56,0c-.23,0-.45,0-.68,0s-.42,0-.63,0-.41,0-.61,0l-.67-.09c-.13,0-.27,0-.4-.06l-.12,0a11.75,11.75,0,0,1-1.89-.58l-.36-.16a11,11,0,0,1-1.59-.84c-22.56-14.71-90.09-50.73-131.13-40.87-45.28,10.88-46.66,55.92-46.7,57.83,0,.18,0,.35-.06.52a11,11,0,0,1-.13,1.17c-.06.36-.14.7-.23,1a9.16,9.16,0,0,1-.33,1c-.13.35-.27.69-.43,1s-.34.62-.52.92-.39.61-.61.9a9.17,9.17,0,0,1-.7.82c-.25.27-.51.53-.78.77a8.76,8.76,0,0,1-.82.66,9.73,9.73,0,0,1-1,.66c-.15.09-.28.21-.44.29s-.3.11-.44.18a10,10,0,0,1-1.12.44,10.5,10.5,0,0,1-1,.32c-.33.08-.66.13-1,.18a11.12,11.12,0,0,1-1.27.12c-.15,0-.29,0-.44,0s-.33,0-.5,0c-.42,0-.84-.07-1.26-.14s-.66-.12-1-.21a10.56,10.56,0,0,1-1.09-.34,10.25,10.25,0,0,1-1-.41,10.63,10.63,0,0,1-1-.54,9.53,9.53,0,0,1-.84-.57,8.74,8.74,0,0,1-.88-.73,10.33,10.33,0,0,1-.74-.74,9.57,9.57,0,0,1-.68-.84,9.38,9.38,0,0,1-.65-1c-.09-.15-.21-.28-.3-.45-.88-1.69-22.17-41.23-67.86-30.25-49.35,11.86-97.75,95.16-98.23,96a10.76,10.76,0,0,1-1,1.45c-.09.12-.19.23-.29.35A11.3,11.3,0,0,1,505,175a1.31,1.31,0,0,0-.12.11l-.51.36-.31.22c-.27.17-.55.33-.83.49l-.25.13a9.09,9.09,0,0,1-1,.43l-.19.08c-.37.14-.74.25-1.11.35l-.1,0-.1,0-.42.07c-.25.05-.49.11-.74.14l-.21,0-.57,0-.91,0-.56,0c-.32,0-.63-.06-.94-.1l-.5-.08c-.39-.08-.76-.18-1.13-.29l-.28-.08a10.62,10.62,0,0,1-1.31-.54,5.05,5.05,0,0,1-.45-.25c-.28-.15-.55-.3-.82-.48s-.31-.21-.47-.33-.51-.39-.75-.6-.27-.23-.39-.35l-.18-.16c-1.83-1.84-45.41-44.72-86.08-13.9-24.62,18.64-12.33,56,3.64,95.92,8.45,21.11,13.1,32.75,7.5,41.83-1.07,1.73-2.58,3.89-4.5,6.63-13.62,19.42-47.76,68.1-46.38,138.3l33.22-27.83a11.32,11.32,0,0,1,13.41-.81,11.13,11.13,0,0,1,4.62,12.54c-.25.84-22.44,77.17-.66,154.15l14.49-21.9a11.26,11.26,0,0,1,20.66,6.45C449.8,566,449.56,580.14,454,603.77ZM434.92,241.06a11.15,11.15,0,0,1-2.28-15.67l18.05-24.11c-3.07-3.6-7.45-7.65-12.12-8.87-1.93-.5-5-.88-9.32,1.7a11.21,11.21,0,1,1-11.53-19.22c8.5-5.06,17.71-6.49,26.65-4.15,18.05,4.74,28.89,23.08,30.07,25.15a11.2,11.2,0,0,1-.79,12.21l-23,30.65a11.32,11.32,0,0,1-15.76,2.31Z" transform="translate(-329.14 -1.18)"/><path class="cls-2" d="M677.65,600c-.35-2.43-.51-3.78-.52-3.9a11.31,11.31,0,0,0-1.14-3.67c-.16-.88-.29-1.72-.41-2.55a96.82,96.82,0,0,0,16.19-2.51c52.32-12.58,81.29-47.63,93.12-65.64,18.73,10.66,60.47,28.72,112.78,16.15a95.55,95.55,0,0,0,15.53-5.11c.28.85.57,1.72.84,2.63a10.88,10.88,0,0,0,.65,3.61c0,.1.45,1.23,1.15,3.27,3,13.45,3.59,31-5.8,47.59a53,53,0,0,1-12.16,13.89H678.75C678.35,602.5,678,601.24,677.65,600Z" transform="translate(-329.14 -1.18)"/><path class="cls-2" d="M329.14,1.18H460.47L473.5,57,361,21.44a18.17,18.17,0,0,0-20,6.5,14.31,14.31,0,0,0,0,17.15l65.19,88a79.62,79.62,0,0,0-15.9,9.43c-40.29,30.52-17.37,87.83-3.67,122.07,3.42,8.55,7.61,19,8.24,23.35-.75,1.1-1.71,2.48-2.77,4-14.74,21-59.61,85-48.79,175.18a11.15,11.15,0,0,0,7,9.07,11.3,11.3,0,0,0,11.38-1.86l25.1-21c-5.53,35-9.22,93.1,11.6,150.49H329.14Z" transform="translate(-329.14 -1.18)"/><path class="cls-2" d="M528.32,468.15c11.42,2.82,25.22,3,36.93,2.54s23-1.5,31.42-2.49c-2.75,48.45,8.25,86.84,30.88,106.59A61.15,61.15,0,0,0,652.71,588a105.69,105.69,0,0,0,2.65,15.82H566.47A406.16,406.16,0,0,1,541.34,540C533.59,514.29,530,487.83,528.32,468.15Z" transform="translate(-329.14 -1.18)"/><path class="cls-2" d="M932.73,520.64a63.33,63.33,0,0,0,6.21-6.3V540.2c-.47-1.4-.89-2.65-1.27-3.74A105.43,105.43,0,0,0,932.73,520.64Z" transform="translate(-329.14 -1.18)"/><path class="cls-2" d="M901.29,21.7l.1-.49c-2,1.55-16.78,13.25-26.85,35.4-.3.66-1.75,1-3.36.26v0C843.7,41.24,781.9,10.53,736.47,21.45c-19.07,4.58-32.85,14-42.63,25.07,0,0-10.15,12.73-13.31,27.31,0,0-.72,3-3.08.9-16.38-15.54-42.51-28.88-76.78-20.64C555.24,65,514.15,120.45,496.79,146.87c-2.67,4-3.35,2.37-3.35,2.37A104.63,104.63,0,0,0,453.14,129a80.07,80.07,0,0,0-23-1.88l-58-78.23L485.72,84.79A11.51,11.51,0,0,0,497,82.29a11.38,11.38,0,0,0,3.4-11L484,1.18h54.9l52,35.94a11.48,11.48,0,0,0,17.83-7.55l4.67-28.39h113l.06.08a11.45,11.45,0,0,0,10,4.62A11.56,11.56,0,0,0,745,1.18h185.9L930.11,6A77.54,77.54,0,0,0,901.29,21.7Z" transform="translate(-329.14 -1.18)"/><path class="cls-2" d="M938.94,360.2V268.27c-6.52-10.61-12.24-20.82-15.79-29.74-11.45-28.78-23.79-53.55-59-65.22-49-16.25-109.31-24.4-119.22-18.75l0,.18c-1.37,8.7-2.67,16.91-4.72,23.66-9.85,32.48-23,38.89-28.16,40.13s-19.79,1.51-43.33-22.94c-4.89-5.09-9.78-11.81-15-18.94l-.11-.15c-11.4-.53-61.41,34.14-97.68,70.88-26.06,26.41-25.8,54.08-22.92,84.91,1.51,16.14-.81,38.37-3.06,59.87-2.06,19.76-4.4,42.11-2.36,52,6.56,5.68,44,5.72,79.66,0a11.28,11.28,0,0,1,9.52,2.92,11.15,11.15,0,0,1,3.44,9.3c-5.05,47.06,3.25,85,22.19,101.55a39.41,39.41,0,0,0,22.05,9.45,13.39,13.39,0,0,1,2.72.22,66.86,66.86,0,0,0,19.35-2c50.47-12.13,76-49.81,82.61-61.14L760,466.21c-3.59-2.62-16.39-5.74-55.56-6.66-7.95-.18-13.93-1.93-18.45-4.35-.15-.08-.31-.15-.46-.24l-.57-.32-.41-.25a26.76,26.76,0,0,1-8.82-8.63c-9.79-15.62-.5-36.8.6-39.16a11.24,11.24,0,0,1,20.47,9.28c-1.82,4-3.41,10.47-2.9,14.87a316.6,316.6,0,0,1,130.77-31.43c-1.54-4.16-5.88-9.17-9.31-11.9a11.16,11.16,0,0,1-1.82-15.74,11.31,11.31,0,0,1,15.81-1.86c2.05,1.61,20,16.25,18.33,34.61a26.68,26.68,0,0,1-3.94,11.69c-.08.14-.16.28-.25.42s-.24.36-.36.54-.2.28-.3.43c-2.92,4.21-7.45,8.48-14.46,12.26C793.86,448.38,783.88,457,781.87,461l9.19,38.24c11.12,7.09,50.93,29.05,101.38,16.92a66.75,66.75,0,0,0,18.14-7,13.72,13.72,0,0,1,2.32-1.43,39.38,39.38,0,0,0,15.34-18.44c9.37-23.33-.49-60.92-26.37-100.54a11.12,11.12,0,0,1-1.16-9.85,11.27,11.27,0,0,1,7.15-6.93C918.62,368.44,929.27,364.39,938.94,360.2Zm-288.06-5.7-.43.11a11.25,11.25,0,0,1-12.62-5.72c-5.28-4.89-35.42-6.51-63.7-3.38A11.26,11.26,0,0,1,563.82,341a11.11,11.11,0,0,1-1.2-11.14c.44-1,11.26-24.48,46.72-33.85,10.29-2.71,20.1-1.28,28.19,4.23,17.67,12,21.16,39.17,21.5,42.22A11.23,11.23,0,0,1,650.88,354.5Zm248.81-94.22a11.28,11.28,0,0,1-7.14,8.7c-26.61,10-52.72,25.19-55.21,32a11.26,11.26,0,0,1-8.64,10.83l-.43.1a11.23,11.23,0,0,1-12.73-7c-1.09-2.88-10.32-28.64,0-47.38,4.7-8.58,12.76-14.33,23.19-16.59,35.85-7.76,56.15,8.24,57,8.92A11.18,11.18,0,0,1,899.69,260.28Z" transform="translate(-329.14 -1.18)"/><path class="cls-2" d="M938.94,78.29v7.09l-2-1A41,41,0,0,1,938.94,78.29Z" transform="translate(-329.14 -1.18)"/><polygon class="cls-2" points="249.94 0 261.09 0 259.96 6.92 249.94 0"/><path class="cls-2" d="M938.94,384.39V409q-4.68-10.1-10.72-20.47C931.43,387.32,935.06,385.94,938.94,384.39Z" transform="translate(-329.14 -1.18)"/><g class="cls-3"><path class="cls-4" d="M941.1,26.48c-.73.12-1.45.27-2.16.43V10.81Z" transform="translate(-329.14 -1.18)"/><path class="cls-4" d="M650.88,354.5l-.43.11a11.25,11.25,0,0,1-12.62-5.72c-5.28-4.89-35.42-6.51-63.7-3.38A11.26,11.26,0,0,1,563.82,341a11.11,11.11,0,0,1-1.2-11.14c.44-1,11.26-24.48,46.72-33.85,10.29-2.71,20.1-1.28,28.19,4.23,17.67,12,21.16,39.17,21.5,42.22A11.23,11.23,0,0,1,650.88,354.5Z" transform="translate(-329.14 -1.18)"/><path class="cls-4" d="M736.55,5.88a11.45,11.45,0,0,1-10-4.62l-.06-.08H745A11.56,11.56,0,0,1,736.55,5.88Z" transform="translate(-329.14 -1.18)"/><path class="cls-4" d="M608.75,29.57a11.48,11.48,0,0,1-17.83,7.55l-52-35.94h40.2l10,6.92,1.13-6.92h23.19Z" transform="translate(-329.14 -1.18)"/><path class="cls-4" d="M386.72,453.28l-25.1,21a11.3,11.3,0,0,1-11.38,1.86,11.15,11.15,0,0,1-7-9.07C332.38,376.93,377.25,313,392,291.92c1.06-1.51,2-2.89,2.77-4-.63-4.33-4.82-14.8-8.24-23.35-13.7-34.24-36.62-91.55,3.67-122.07a79.62,79.62,0,0,1,15.9-9.43l-65.19-88a14.31,14.31,0,0,1,0-17.15,18.17,18.17,0,0,1,20-6.5L473.5,57l-13-55.83H484l16.38,70.15a11.38,11.38,0,0,1-3.4,11,11.51,11.51,0,0,1-11.24,2.5L372.21,48.92l58,78.23a80.07,80.07,0,0,1,23,1.88,104.63,104.63,0,0,1,40.3,20.21s.68,1.64,3.35-2.37C514.15,120.45,555.24,65,600.67,54.09c34.27-8.24,60.4,5.1,76.78,20.64,2.36,2.15,3.08-.9,3.08-.9,3.16-14.58,13.31-27.31,13.31-27.31C703.62,35.43,717.4,26,736.47,21.45,781.9,10.53,843.7,41.24,871.17,56.89v0c1.61.79,3.06.4,3.36-.26,10.07-22.15,24.82-33.85,26.85-35.4l-.1.49A77.54,77.54,0,0,1,930.11,6l.81-4.84h6.69l1.33,9.63v16.1c-34.41,7.58-48.51,49.15-49.19,51.22,0,.07-.06.14-.08.22s-.13.33-.2.49a8.53,8.53,0,0,1-.39.87,5.12,5.12,0,0,1-.27.52c-.16.27-.33.53-.5.79l-.3.43a11.91,11.91,0,0,1-.92,1.08l-.21.19a10.77,10.77,0,0,1-.88.77c-.13.11-.27.2-.41.3s-.52.36-.79.52l-.48.28c-.27.14-.55.27-.83.39l-.52.22-.2.08a7.71,7.71,0,0,1-.82.24l-.31.1h-.07l-.42.08-.8.14-.56,0c-.23,0-.45,0-.68,0s-.42,0-.63,0-.41,0-.61,0l-.67-.09c-.13,0-.27,0-.4-.06l-.12,0a11.75,11.75,0,0,1-1.89-.58l-.36-.16a11,11,0,0,1-1.59-.84c-22.56-14.71-90.09-50.73-131.13-40.87-45.28,10.88-46.66,55.92-46.7,57.83,0,.18,0,.35-.06.52a11,11,0,0,1-.13,1.17c-.06.36-.14.7-.23,1a9.16,9.16,0,0,1-.33,1c-.13.35-.27.69-.43,1s-.34.62-.52.92-.39.61-.61.9a9.17,9.17,0,0,1-.7.82c-.25.27-.51.53-.78.77a8.76,8.76,0,0,1-.82.66,9.73,9.73,0,0,1-1,.66c-.15.09-.28.21-.44.29s-.3.11-.44.18a10,10,0,0,1-1.12.44,10.5,10.5,0,0,1-1,.32c-.33.08-.66.13-1,.18a11.12,11.12,0,0,1-1.27.12c-.15,0-.29,0-.44,0s-.33,0-.5,0c-.42,0-.84-.07-1.26-.14s-.66-.12-1-.21a10.56,10.56,0,0,1-1.09-.34,10.25,10.25,0,0,1-1-.41,10.63,10.63,0,0,1-1-.54,9.53,9.53,0,0,1-.84-.57,8.74,8.74,0,0,1-.88-.73,10.33,10.33,0,0,1-.74-.74,9.57,9.57,0,0,1-.68-.84,9.38,9.38,0,0,1-.65-1c-.09-.15-.21-.28-.3-.45-.88-1.69-22.17-41.23-67.86-30.25-49.35,11.86-97.75,95.16-98.23,96a10.76,10.76,0,0,1-1,1.45c-.09.12-.19.23-.29.35A11.3,11.3,0,0,1,505,175a1.31,1.31,0,0,0-.12.11l-.51.36-.31.22c-.27.17-.55.33-.83.49l-.25.13a9.09,9.09,0,0,1-1,.43l-.19.08c-.37.14-.74.25-1.11.35l-.1,0-.1,0-.42.07c-.25.05-.49.11-.74.14l-.21,0-.57,0-.91,0-.56,0c-.32,0-.63-.06-.94-.1l-.5-.08c-.39-.08-.76-.18-1.13-.29l-.28-.08a10.62,10.62,0,0,1-1.31-.54,5.05,5.05,0,0,1-.45-.25c-.28-.15-.55-.3-.82-.48s-.31-.21-.47-.33-.51-.39-.75-.6-.27-.23-.39-.35l-.18-.16c-1.83-1.84-45.41-44.72-86.08-13.9-24.62,18.64-12.33,56,3.64,95.92,8.45,21.11,13.1,32.75,7.5,41.83-1.07,1.73-2.58,3.89-4.5,6.63-13.62,19.42-47.76,68.1-46.38,138.3l33.22-27.83a11.32,11.32,0,0,1,13.41-.81,11.13,11.13,0,0,1,4.62,12.54c-.25.84-22.44,77.17-.66,154.15l14.49-21.9a11.26,11.26,0,0,1,20.66,6.45c0,.37-.25,14.53,4.19,38.16H430.9c-.31-1.81-.6-3.57-.86-5.26l-3.48,5.26H398.32C377.5,546.38,381.19,488.26,386.72,453.28Z" transform="translate(-329.14 -1.18)"/><path class="cls-4" d="M504.36,437.06c-.38-12.69,1.32-29,3.21-47.16.23-2.23.47-4.46.7-6.69C492,397.93,468.8,427.6,463.77,480A11.25,11.25,0,0,1,441.36,478c7.81-81.52,54.71-115.75,69.39-124.56a140.56,140.56,0,0,0-.14-19c-3.15-33.76-3.49-69.5,29.29-102.72,13.39-13.55,65.16-60.93,99.1-74.13-8.46-9.76-17.89-17.84-28.1-19.15-8.68-1.12-18,2.51-28.61,11.09a11.28,11.28,0,0,1-15.84-1.57,11.16,11.16,0,0,1,1.62-15.76c15.42-12.53,30.82-17.91,45.78-16,26.24,3.38,43.93,27.74,58.15,47.31,4.71,6.48,9.15,12.6,13,16.57,11.4,11.84,18.64,15.17,21.66,16.1,2.27-2.2,7.21-8.46,12-24.19,1.61-5.27,2.79-12.75,4-20.66,3.77-23.89,8.47-53.62,30.31-68.56,12.45-8.51,28.61-10.72,48-6.57a11.18,11.18,0,0,1,8.61,13.31,11.3,11.3,0,0,1-13.4,8.6c-13.32-2.85-23.3-1.83-30.52,3.11-8.51,5.82-13.23,17.3-16.34,29.84,36.23-3.68,103.89,15,122,21,38.5,12.76,55.58,38.6,67.62,65.82v50.4c-6.52-10.61-12.24-20.82-15.79-29.74-11.45-28.78-23.79-53.55-59-65.22-49-16.25-109.31-24.4-119.22-18.75l0,.18c-1.37,8.7-2.67,16.91-4.72,23.66-9.85,32.48-23,38.89-28.16,40.13s-19.79,1.51-43.33-22.94c-4.89-5.09-9.78-11.81-15-18.94l-.11-.15c-11.4-.53-61.41,34.14-97.68,70.88-26.06,26.41-25.8,54.08-22.92,84.91,1.51,16.14-.81,38.37-3.06,59.87-2.06,19.76-4.4,42.11-2.36,52,6.56,5.68,44,5.72,79.66,0a11.28,11.28,0,0,1,9.52,2.92,11.15,11.15,0,0,1,3.44,9.3c-5.05,47.06,3.25,85,22.19,101.55a39.41,39.41,0,0,0,22.05,9.45,13.39,13.39,0,0,1,2.72.22,66.86,66.86,0,0,0,19.35-2c50.47-12.13,76-49.81,82.61-61.14L760,466.21c-3.59-2.62-16.39-5.74-55.56-6.66-7.95-.18-13.93-1.93-18.45-4.35-.15-.08-.31-.15-.46-.24l-.57-.32-.41-.25a26.76,26.76,0,0,1-8.82-8.63c-9.79-15.62-.5-36.8.6-39.16a11.24,11.24,0,0,1,20.47,9.28c-1.82,4-3.41,10.47-2.9,14.87a316.6,316.6,0,0,1,130.77-31.43c-1.54-4.16-5.88-9.17-9.31-11.9a11.16,11.16,0,0,1-1.82-15.74,11.31,11.31,0,0,1,15.81-1.86c2.05,1.61,20,16.25,18.33,34.61a26.68,26.68,0,0,1-3.94,11.69c-.08.14-.16.28-.25.42s-.24.36-.36.54-.2.28-.3.43c-2.92,4.21-7.45,8.48-14.46,12.26C793.86,448.38,783.88,457,781.87,461l9.19,38.24c11.12,7.09,50.93,29.05,101.38,16.92a66.75,66.75,0,0,0,18.14-7,13.72,13.72,0,0,1,2.32-1.43,39.38,39.38,0,0,0,15.34-18.44c9.37-23.33-.49-60.92-26.37-100.54a11.12,11.12,0,0,1-1.16-9.85,11.27,11.27,0,0,1,7.15-6.93c10.76-3.47,21.41-7.52,31.08-11.71v24.19c-3.88,1.55-7.51,2.93-10.72,4.12q6.06,10.37,10.72,20.47V514.34a63.33,63.33,0,0,1-6.21,6.3,105.43,105.43,0,0,1,4.94,15.82c.38,1.09.8,2.34,1.27,3.74v63.57h-6.19c-.7-3.14-1.39-6.2-2.09-9.16-.16.31-.31.61-.48.91a59.9,59.9,0,0,1-5.7,8.25h-26.6A53,53,0,0,0,910,589.88c9.39-16.55,8.77-34.14,5.8-47.59-.7-2-1.12-3.17-1.15-3.27a10.88,10.88,0,0,1-.65-3.61c-.27-.91-.56-1.78-.84-2.63a95.55,95.55,0,0,1-15.53,5.11c-52.31,12.57-94-5.49-112.78-16.15-11.83,18-40.8,53.06-93.12,65.64a96.82,96.82,0,0,1-16.19,2.51c.12.83.25,1.67.41,2.55a11.31,11.31,0,0,1,1.14,3.67c0,.12.17,1.47.52,3.9.33,1.23.7,2.49,1.1,3.76H655.36A105.69,105.69,0,0,1,652.71,588a61.15,61.15,0,0,1-25.16-13.16C604.92,555,593.92,516.65,596.67,468.2c-8.46,1-19.81,2.09-31.42,2.49s-25.51.28-36.93-2.54c1.67,19.68,5.27,46.14,13,71.8a406.16,406.16,0,0,0,25.13,63.82h-25a434.49,434.49,0,0,1-21.73-57.33C504.13,494.66,504.32,441.44,504.36,437.06Z" transform="translate(-329.14 -1.18)"/><path class="cls-4" d="M432.64,225.39l18.05-24.11c-3.07-3.6-7.45-7.65-12.12-8.87-1.93-.5-5-.88-9.32,1.7a11.21,11.21,0,1,1-11.53-19.22c8.5-5.06,17.71-6.49,26.65-4.15,18.05,4.74,28.89,23.08,30.07,25.15a11.2,11.2,0,0,1-.79,12.21l-23,30.65a11.22,11.22,0,1,1-18-13.36Z" transform="translate(-329.14 -1.18)"/><path class="cls-4" d="M892.55,269c-26.61,10-52.72,25.19-55.21,32a11.26,11.26,0,0,1-8.64,10.83l-.43.1a11.23,11.23,0,0,1-12.73-7c-1.09-2.88-10.32-28.64,0-47.38,4.7-8.58,12.76-14.33,23.19-16.59,35.85-7.76,56.15,8.24,57,8.92A11.19,11.19,0,0,1,892.55,269Z" transform="translate(-329.14 -1.18)"/><path class="cls-4" d="M913.36,90.4c.11-2.39,1.43-23.65,15.35-36.07a33,33,0,0,1,10.23-6.21V78.29a41,41,0,0,0-2,6.12l2,1v25l-19.33-9.48A11.18,11.18,0,0,1,913.36,90.4Z" transform="translate(-329.14 -1.18)"/></g></svg>