<?xml version="1.0" encoding="utf-8"?>
<!-- Generator: Adobe Illustrator 23.0.5, SVG Export Plug-In . SVG Version: 6.00 Build 0)  -->
<svg version="1.1" id="Capa_1" xmlns="http://www.w3.org/2000/svg" xmlns:xlink="http://www.w3.org/1999/xlink" x="0px" y="0px"
	 viewBox="0 0 1685.8 1069.5" style="enable-background:new 0 0 1685.8 1069.5;" xml:space="preserve">
<style type="text/css">
	.st0{opacity:0.8;}
	.st1{opacity:5.000000e-02;}
	.st2{fill:none;}
</style>
<title>fondo_contacto</title>
<g class="st0">
	<path class="st1" d="M73.1,203.6c4-5.2,5.5-5.7,12.2-3.8l435.9,123.4c7.8,2.2,15.8,4.1,23.4,6.8c2.6,1.2,4.6,3.3,5.6,5.9
		c1.2,3.2-1.3,5.7-4.3,7.2c-0.8,0.4-1.6,0.8-2.4,1.1c-40.4,18.5-80.7,37-121.1,55.4c-3.3,1.3-5.6,4.1-6.2,7.5
		c-9.7,40.6-19.5,81.1-29.3,121.6c-0.8,3.4-1.9,6.5-5.9,7.4c-3.9,0.9-6.5-1.3-8.9-4c-18.4-20-36.7-39.9-55.2-59.9
		c-0.8-0.8-1.6-1.7-2.3-2.7c-2.3-3.3-1.9-7.1,1-9.3c3.2-2.4,6.4-2.2,9.5,0.3c1.1,1,2.2,2,3.1,3.1c7,7.6,14,15.1,21,22.7l0.8-0.4
		l-21.2-43.3L280,464.9c-38.5,17.5-77,35-115.5,52.4c-7.1,3.2-11.3,1.5-13-5.2c-4.3-16.8-8.6-33.6-12.9-50.4
		c-9.6-37.8-19.3-75.5-28.9-113.3c-9.7-37.9-19.4-75.8-29.1-113.8c-2.2-8.4-4.5-16.7-6.8-25L73.1,203.6z M386.4,469
		c5.7-23.4,11.4-46.6,16.9-70c0.8-4.3,3.8-7.8,8-9.5c35.7-16.2,71.3-32.6,106.9-49c1.3-0.6,2.5-1.3,4.7-2.4L135.4,228.4L135,229
		c1.3,0.8,2.6,1.5,3.8,2.3c69.6,40.3,139.2,80.7,208.7,121c1.9,0.9,3.6,2.1,5.2,3.5c2.5,2.2,2.8,5.8,0.8,8.3
		c-1.9,2.7-4.8,3.9-8.3,2.6c-1.9-0.8-3.8-1.8-5.6-2.9L142.1,249.4c-1.5-1-3.2-1.7-4.9-2.1c0.8,0.8,1.5,1.6,2.4,2.3
		c64.9,58.8,129.8,117.6,194.7,176.4c2.5,2.3,4.5,5,6,8c11.4,23,22.7,46.2,34,69.3c0.7,1.4,1.5,2.8,2.6,4.9
		C380.2,494.6,383.3,481.8,386.4,469z M319.6,431.6L93.4,226.8c23.6,92.5,46.9,183.6,70.4,275.5L319.6,431.6z"/>
	<path class="st1" d="M364.3,376c1.1,1.6,2.5,3.1,4.1,4.4c4.3,2.9,8.9,5.4,13.5,7.9c4.1,2.2,8.1,1.4,10.4-1.9
		c2.3-3.3,1.2-7.3-2.7-9.7c-4.7-3-9.4-5.8-14.3-8.3C369.7,365.6,363.8,369,364.3,376z"/>
	<path class="st1" d="M1293.2,1016.4c-12,1.2-24.1,2.2-35.9,3c-3.5,0.3-6.5-2.6-6.7-6.4c-0.2-3.8,2.4-7.1,5.8-7.4l0,0l0.2,0
		c11.7-0.8,23.7-1.8,35.6-3l2.9-0.3c3.5-0.3,6.5,2.5,6.8,6.3c0.3,3.8-2.3,7.2-5.8,7.5L1293.2,1016.4z M1334.6,1011.7
		c-3.5,0.4-6.5-2.4-6.9-6.2c-0.3-3.8,2.2-7.2,5.7-7.6c12.6-1.6,25.5-3.5,38.3-5.5c3.4-0.5,6.6,2.1,7.1,5.9c0.5,3.8-1.9,7.3-5.4,7.8
		c-12.9,2-25.9,3.9-38.6,5.6L1334.6,1011.7z M1218.7,1021.5l-0.4,0c-13.1,0.5-26.2,0.7-38.9,0.7c-3.5,0-6.3-3.1-6.3-6.9
		c0-3.8,2.9-6.9,6.4-6.9c12.6,0,25.6-0.2,38.5-0.7c3.5-0.2,6.4,2.7,6.6,6.5C1224.9,1017.9,1222.2,1021.2,1218.7,1021.5
		L1218.7,1021.5z M1411.3,999.6c-3.5,0.5-6.6-2.2-7-6c-0.4-3.8,2-7.2,5.5-7.7c12.6-2.3,25.4-4.9,38-7.5c3.4-0.8,6.7,1.5,7.4,5.3
		c0.7,3.7-1.5,7.4-4.9,8.2c-0.1,0-0.2,0-0.3,0.1c-12.8,2.7-25.6,5.2-38.3,7.6L1411.3,999.6z M1141.4,1021.4c-0.3,0-0.5,0.1-0.8,0.1
		c-13.1-0.5-26.2-1.3-38.9-2.4c-3.5-0.2-6.1-3.5-5.9-7.3c0.2-3.8,3.2-6.7,6.7-6.5c0.1,0,0.2,0,0.3,0c12.5,1,25.4,1.8,38.4,2.4
		c3.5,0.1,6.2,3.3,6,7.1C1147,1018.3,1144.5,1021.1,1141.4,1021.4L1141.4,1021.4z M1487.4,983.5c-3.4,0.6-6.6-2-7.1-5.8
		c-0.5-3.8,1.9-7.3,5.4-7.9l0,0c12.5-3,25.2-6.1,37.7-9.4c3.4-1,6.8,1.2,7.7,4.9c0.9,3.7-1.2,7.5-4.5,8.5c-0.1,0-0.2,0.1-0.3,0.1
		c-12.6,3.3-25.4,6.5-38,9.4C1488,983.4,1487.7,983.5,1487.4,983.5L1487.4,983.5z M1064.3,1014.9c-0.4,0-0.9,0-1.3,0
		c-13-1.7-26-3.7-38.6-6c-3.4-0.5-5.8-4-5.3-7.8c0.5-3.8,3.7-6.4,7.1-5.9c0.1,0,0.2,0,0.3,0.1c12.4,2.3,25.2,4.3,38,5.9
		c3.4,0.5,5.9,3.9,5.4,7.7C1069.6,1012.1,1067.2,1014.6,1064.3,1014.9L1064.3,1014.9z M1563,963.8c-3.5,0.3-6.5-2.5-6.8-6.3
		c-0.2-3.4,1.8-6.4,4.7-7.3c12.5-3.6,25.1-7.3,37.3-11.1c3.3-1,6.8,1.1,7.7,4.7c0.9,3.7-1,7.5-4.4,8.5c-12.3,3.9-25,7.6-37.6,11.3
		C1563.7,963.7,1563.3,963.8,1563,963.8L1563,963.8z M1637.6,940.5c-3.5,0.4-6.5-2.4-6.8-6.2c-0.3-3.3,1.6-6.3,4.5-7.2
		c23.2-7.9,36.5-13.2,36.6-13.3c3.3-1.4,6.9,0.4,8.1,4s-0.5,7.6-3.7,8.9c0,0-0.1,0-0.1,0.1c-0.5,0.2-13.7,5.4-37.2,13.5
		C1638.5,940.3,1638.1,940.4,1637.6,940.5L1637.6,940.5z M988,1001c-0.7,0.1-1.3,0-2-0.1c-12.9-3.1-25.5-6.6-37.8-10.3
		c-3.4-1-5.3-4.9-4.3-8.6c1-3.7,4.5-5.8,7.8-4.8c12,3.7,24.6,7.1,37.1,10.2c3.4,0.8,5.5,4.5,4.7,8.2
		C993,998.5,990.8,1000.7,988,1001L988,1001z M913.7,978.1c-0.9,0.1-1.8,0-2.6-0.4c-12.4-4.7-24.6-9.9-36.4-15.4
		c-3.2-1.4-4.8-5.3-3.6-8.9s4.9-5.4,8.1-4c0.1,0.1,0.3,0.1,0.4,0.2c11.5,5.3,23.5,10.4,35.6,15c3.3,1.2,5,5.2,3.8,8.8
		C918.3,976.1,916.2,977.9,913.7,978.1L913.7,978.1z M842.7,945c-1.2,0.1-2.4-0.1-3.4-0.7c-11.7-6.5-23.1-13.6-34-21
		c-3-2-3.9-6.2-2-9.5c1.8-3.3,5.7-4.3,8.7-2.3l0,0c10.7,7.2,21.8,14.1,33.2,20.4c3.1,1.7,4.3,5.9,2.7,9.3
		C846.7,943.4,844.8,944.8,842.7,945L842.7,945z M777,900.9c-1.5,0.1-3-0.3-4.2-1.2c-10.9-8.5-21.3-17.3-31-26
		c-2.7-2.4-3-6.8-0.8-9.7s6.2-3.4,8.9-1c9.4,8.5,19.6,17.1,30.2,25.4c2.8,2.2,3.5,6.5,1.4,9.6C780.5,899.7,778.8,900.7,777,900.9z
		 M1079.7,862.1c-1.9,0.2-3.8,0.4-5.7,0.6c-3.5,0.3-6.5-2.5-6.7-6.3c-0.3-3.8,2.3-7.1,5.8-7.5l0.1,0c1.8-0.2,3.7-0.3,5.5-0.5
		c11-1.1,21.9-2.6,32.4-4.5c3.4-0.6,6.7,1.9,7.2,5.7c0.5,3.8-1.8,7.3-5.2,8C1102.2,859.3,1091,860.9,1079.7,862.1L1079.7,862.1z
		 M1035.5,864.3l-0.6,0.1c-12.8,0-25.9-0.4-39.1-1.4c-3.5-0.4-6-3.7-5.6-7.5c0.3-3.6,3.2-6.4,6.5-6.3c12.9,0.9,25.8,1.4,38.2,1.4
		c3.5-0.2,6.4,2.8,6.5,6.6C1041.7,860.9,1039,864.1,1035.5,864.3L1035.5,864.3z M1150.5,848.6c-3.5,0.3-6.5-2.5-6.8-6.3
		c-0.2-3.3,1.7-6.4,4.7-7.3c12.2-3.6,24.3-8,36.1-13.1c3.2-1.4,6.9,0.3,8.2,3.8c1.3,3.5-0.3,7.6-3.6,9c-12.3,5.4-24.8,9.9-37.5,13.7
		C1151.2,848.5,1150.8,848.5,1150.5,848.6L1150.5,848.6z M958.3,858.7c-0.5,0-0.9,0-1.4,0c-12.7-1.8-25.6-4-38.5-6.7
		c-3.4-0.6-5.7-4.1-5.2-7.9s3.8-6.3,7.3-5.7c0.1,0,0.2,0,0.3,0.1c12.6,2.6,25.4,4.8,37.8,6.6c3.4,0.5,5.9,3.9,5.4,7.7
		C963.6,855.9,961.3,858.4,958.3,858.7L958.3,858.7z M1222.2,816.5c-3.5,0.3-6.5-2.5-6.8-6.3c-0.2-2.7,1-5.2,3.1-6.6
		c10.9-6.9,21.2-14.9,30.8-23.8c2.7-2.5,6.6-2.2,8.9,0.7c2.2,2.9,1.9,7.3-0.7,9.7c-10.2,9.5-21.1,17.9-32.7,25.2
		C1224,816.1,1223.1,816.4,1222.2,816.5z M882.4,843.2c-0.7,0.1-1.4,0-2-0.2c-12.4-3.3-25.1-7-37.6-11.1c-3.3-1.1-5.2-4.9-4.2-8.6
		c1-3.7,4.5-5.7,7.8-4.7c12.3,4,24.8,7.7,37,10.9c3.4,0.9,5.4,4.6,4.6,8.3C887.3,840.8,885.1,842.9,882.4,843.2L882.4,843.2z
		 M717.7,847c-1.8,0.2-3.6-0.5-4.9-1.9c-9.3-10-18.2-20.6-26.5-31.7c-2.2-2.9-1.8-7.3,0.9-9.8c2.7-2.4,6.7-2,8.9,0.9
		c8,10.7,16.6,20.9,25.6,30.6c2.5,2.6,2.5,7,0.1,9.8C720.8,846.1,719.3,846.8,717.7,847z M808.3,819.2c-0.9,0.1-1.8,0-2.6-0.4
		c-12.1-4.6-24.3-9.6-36.4-14.9c-3.2-1.4-4.8-5.4-3.5-9c1.3-3.5,5-5.3,8.2-3.9c11.9,5.2,24,10.1,35.9,14.7c3.3,1.2,5,5.2,3.8,8.8
		C812.9,817.2,810.8,819,808.3,819.2L808.3,819.2z M1280.5,761.1c-3.5,0.3-6.5-2.5-6.8-6.3c-0.1-1.7,0.3-3.3,1.2-4.7
		c7.3-10.8,13-22.9,16.7-35.7c0.8-3.7,4.2-6,7.6-5.2c3.4,0.9,5.5,4.6,4.7,8.3c-0.1,0.3-0.2,0.6-0.3,1c-4.1,14.3-10.4,27.8-18.6,39.8
		C1283.9,759.8,1282.3,760.9,1280.5,761.1L1280.5,761.1z M736.6,787.9c-1.1,0.1-2.1-0.1-3.1-0.6c-11.7-5.7-23.5-11.8-35.1-18.2
		c-3.2-1.6-4.5-5.7-3.1-9.1c1.5-3.5,5.2-5,8.4-3.4c0.1,0.1,0.2,0.1,0.4,0.2c11.5,6.2,23.1,12.3,34.7,17.9c3.2,1.5,4.6,5.6,3.1,9.1
		C740.9,786.1,738.9,787.7,736.6,787.9L736.6,787.9z M669.4,781.3c-2.4,0.2-4.7-1-5.9-3.2c-6.9-12.4-12.8-25.4-17.7-38.9
		c-0.1-0.3-0.2-0.7-0.3-1c-5.1-3.2-10.2-6.4-15.2-9.7c-3-2-3.9-6.2-2-9.5c1.8-3.2,5.6-4.3,8.5-2.4c11,7.2,22.2,14.2,33.3,20.8
		c3,1.8,4.1,6,2.5,9.4c-1.7,3.4-5.5,4.6-8.6,2.8l0,0l-0.4-0.2c3.2,7.2,6.7,14.4,10.7,21.5c1.8,3.2,0.8,7.5-2.1,9.5
		C671.3,780.9,670.4,781.2,669.4,781.3L669.4,781.3z M1303.4,681.4l-0.3,0c-3.5,0.1-6.4-2.8-6.5-6.6c-0.1-2.1-0.2-4.4-0.3-6.6
		c-0.9-11.2-3-22.3-6.3-33c-1-3.6,0.8-7.5,4.1-8.7c3.2-1.1,6.7,0.7,7.8,4.2c3.6,11.7,6,23.9,6.9,36.3c0.2,2.4,0.3,4.9,0.4,7.3
		C1309.2,677.9,1306.7,681,1303.4,681.4z M601.2,707.1c-1.4,0.1-2.8-0.2-4-1c-10.8-7.6-21.6-15.5-32.3-23.6c-2.9-2-3.8-6.3-1.9-9.5
		c1.9-3.2,5.8-4.2,8.7-2.2c0.1,0.1,0.3,0.2,0.4,0.3c10.5,8,21.3,15.8,31.9,23.3c2.9,2.1,3.7,6.3,1.8,9.5
		C604.9,705.8,603.1,706.9,601.2,707.1L601.2,707.1z M641.8,702.7c-3.3,0.3-6.2-2.2-6.7-5.7c-0.7-4.9-1.3-10-1.7-14.9
		c-0.7-9.7-0.7-19.4,0-29.1c0.3-3.8,3.3-6.7,6.8-6.4c3.5,0.3,6,3.6,5.8,7.4c-0.6,8.9-0.6,17.9,0,26.8c0.3,4.6,0.9,9.2,1.5,13.8
		c0.6,3.8-1.8,7.3-5.2,8c0,0,0,0,0,0L641.8,702.7z M1279.6,601.8c-2.3,0.2-4.6-1-5.8-3.1c-6.8-11.5-14.5-22.2-23.1-32.1
		c-2.6-2.5-2.9-6.8-0.6-9.7s6.3-3.2,8.9-0.7c0.3,0.3,0.6,0.6,0.8,0.9c9.2,10.5,17.4,21.9,24.6,34.1c1.9,3.2,1,7.5-1.9,9.5
		C1281.6,601.4,1280.6,601.8,1279.6,601.8L1279.6,601.8z M537.8,659c-1.5,0.1-3-0.3-4.3-1.3c-10.3-8.3-20.6-17-30.8-25.8
		c-2.7-2.4-3.2-6.7-1-9.7c2.2-3,6.1-3.5,8.8-1.2c10,8.7,20.3,17.3,30.5,25.6c2.8,2.3,3.3,6.6,1.3,9.7
		C541.2,657.8,539.6,658.9,537.8,659z M648.1,619c-3.5,0.3-6.5-2.5-6.8-6.3c-0.1-0.9,0-1.9,0.3-2.8c4.4-13.9,10.2-27.3,17.3-39.8
		c1.8-3.3,5.7-4.3,8.7-2.3c3,2,3.9,6.2,2,9.5c-6.6,11.6-12,24-16,36.9C652.8,616.9,650.6,618.7,648.1,619z M1227,540.7
		c-1.6,0.2-3.1-0.3-4.4-1.4c-10-8.4-20.5-16.1-31.4-23c-3.1-1.8-4.2-6-2.5-9.3s5.5-4.6,8.5-2.8c0.1,0.1,0.3,0.2,0.4,0.3
		c11.3,7.2,22.2,15.2,32.7,24c2.7,2.3,3.2,6.6,1.1,9.7C1230.4,539.5,1228.7,540.5,1227,540.7L1227,540.7z M477.3,606.6
		c-1.7,0.2-3.3-0.4-4.6-1.6c-9.8-9-19.6-18.4-29.3-27.8c-2.6-2.4-3-6.8-0.7-9.7c2.3-2.9,6.2-3.3,8.9-0.9c0.1,0.1,0.2,0.2,0.3,0.3
		c9.6,9.4,19.3,18.6,29,27.6c2.6,2.5,3,6.8,0.7,9.7C480.5,605.6,479,606.5,477.3,606.6L477.3,606.6z M688.4,546.9
		c-3.5,0.3-6.5-2.5-6.8-6.2c-0.1-1.9,0.5-3.9,1.7-5.3c9.1-10.7,19-20.5,29.5-29.4c2.9-2.2,6.8-1.5,8.8,1.7c1.9,2.9,1.4,6.9-1.1,9.3
		c-10,8.4-19.4,17.8-28,27.9C691.4,545.9,690,546.7,688.4,546.9L688.4,546.9z M1160.7,497.7c-1.1,0.1-2.2-0.1-3.2-0.6
		c-11.2-5.6-23-10.9-35.3-15.6c-3.3-1.3-4.9-5.2-3.7-8.8c1.2-3.6,4.8-5.5,8.1-4.2c12.6,4.9,24.8,10.4,36.2,16.1
		c3.1,1.6,4.5,5.7,3,9.1C1165,496,1163,497.5,1160.7,497.7z M419.8,550.4c-1.8,0.2-3.6-0.5-4.9-1.8l-3.6-3.9c-2.5-2.6-2.7-7-0.3-9.8
		c2.4-2.8,6.4-3,8.9-0.4c0,0,0.1,0.1,0.1,0.1l3.6,3.8c2.5,2.6,2.6,7,0.2,9.7C422.8,549.4,421.3,550.2,419.8,550.4L419.8,550.4z
		 M1088.2,469.2c-0.8,0.1-1.5,0-2.2-0.2c-11.9-3.6-24.4-7-37.1-9.9c-3.4-0.8-5.6-4.5-4.8-8.2c0.7-3.8,4.1-6.2,7.5-5.4
		c13,3,25.7,6.4,37.9,10.1c3.3,1,5.3,4.8,4.3,8.5C1093,466.8,1090.8,468.8,1088.2,469.2L1088.2,469.2z M749.5,494.7
		c-3.5,0.3-6.5-2.5-6.8-6.3c-0.2-2.7,1-5.3,3.2-6.6c11.5-7.2,23.3-13.5,35.5-19.1c3.2-1.5,6.9,0.1,8.3,3.6c1.4,3.5-0.1,7.6-3.3,9.1
		c-0.1,0-0.1,0.1-0.2,0.1c-11.7,5.4-23.1,11.5-34.2,18.4C751.3,494.3,750.4,494.6,749.5,494.7L749.5,494.7z M1012.7,451.5
		c-0.5,0-1,0-1.5-0.1c-7.5-1.3-15.2-2.5-22.9-3.5c-5-0.7-10-1.3-15-1.8c-3.5-0.3-6-3.6-5.7-7.4c0.3-3.8,3.3-6.6,6.8-6.4
		c0.1,0,0.1,0,0.2,0c5.1,0.5,10.3,1.1,15.4,1.8c7.9,1.1,15.7,2.3,23.3,3.6c3.4,0.6,5.8,4.1,5.2,7.9
		C1017.9,448.8,1015.5,451.2,1012.7,451.5L1012.7,451.5z M820.9,461.7c-3.5,0.4-6.5-2.4-6.8-6.2c-0.3-3.3,1.7-6.3,4.6-7.3
		c12.6-4.1,25.4-7.4,38.3-10.1c3.4-0.7,6.7,1.8,7.2,5.6c0.6,3.7-1.7,7.2-5,8c-12.5,2.6-24.9,5.8-37.1,9.7
		C821.8,461.6,821.4,461.7,820.9,461.7z M935.7,444.2l-0.6,0.1c-12.7,0-25.5,0.6-38,1.8l-0.1,0c-3.5,0.3-6.5-2.5-6.8-6.3
		c-0.3-3.8,2.3-7.2,5.8-7.5l0,0c13-1.3,26.1-1.9,39.2-1.9c3.5-0.2,6.4,2.8,6.5,6.6C941.8,440.9,939.1,444.1,935.7,444.2L935.7,444.2
		z"/>
</g>
<rect x="-2.3" y="0.1" class="st2" width="1688.1" height="1069.4"/>
</svg>
