<?xml version="1.0" encoding="utf-8"?>
<!-- Generator: Adobe Illustrator 23.0.5, SVG Export Plug-In . SVG Version: 6.00 Build 0)  -->
<svg version="1.1" id="Capa_1" xmlns="http://www.w3.org/2000/svg" xmlns:xlink="http://www.w3.org/1999/xlink" x="0px" y="0px"
	 viewBox="0 0 602.4 766.1" style="enable-background:new 0 0 602.4 766.1;" xml:space="preserve">
<style type="text/css">
	.st0{opacity:5.000000e-02;}
	.st1{fill:#FFFFFF;}
</style>
<g class="st0">
	<title>fondo_nosotros_phone</title>
	<path class="st1" d="M555.7,407.9c-0.8-0.7-20.6-17.1-56.2-10.3c-10.3,2-18.5,7.5-23.3,15.9c-10.6,18.4-2,44.3-1,47.2
		c1.8,5.2,7.1,8.2,12.4,7.3l0.4-0.1c5-1.1,8.6-5.4,8.8-10.6c2.6-6.7,28.8-21.1,55.4-30.5c5.8-2,8.9-8.4,6.8-14.2
		C558.4,410.9,557.2,409.2,555.7,407.9L555.7,407.9z"/>
	<path class="st1" d="M107.2,711.2c0.3-6.1-4.4-11.4-10.5-11.8c-3.9-0.2-7.6,1.6-9.8,4.8l-14.9,21.5c-19.9-77.2,3.8-152.6,4.1-153.4
		c1.9-5.9-1.4-12.1-7.2-14c-3.6-1.1-7.4-0.4-10.4,1.9L25,587.1c0.2-69.9,35.1-117.5,49-136.5c2-2.7,3.5-4.8,4.6-6.5
		c5.8-8.9,1.4-20.6-6.5-41.8c-14.9-40.1-26.2-77.6-1.5-95.6c40.7-29.5,83.2,14.1,84.9,16c0.1,0.1,0.1,0.1,0.2,0.2s0.3,0.2,0.4,0.4
		c0.2,0.2,0.5,0.4,0.7,0.6l0.5,0.4c0.3,0.2,0.5,0.3,0.8,0.5l0.4,0.3c0.4,0.2,0.8,0.4,1.3,0.6c0.1,0,0.2,0.1,0.3,0.1
		c0.4,0.1,0.7,0.2,1.1,0.3c0.2,0,0.3,0.1,0.5,0.1c0.3,0.1,0.6,0.1,0.9,0.1h0.5h0.9h0.6h0.2c0.3,0,0.6-0.1,0.8-0.1h0.3h0.1l0.4-0.1
		c0.3-0.1,0.5-0.1,0.8-0.2l0.5-0.2c0.2-0.1,0.4-0.2,0.6-0.3s0.4-0.2,0.6-0.3c0.2-0.1,0.4-0.2,0.5-0.3c0.2-0.1,0.4-0.2,0.6-0.4
		l0.3-0.2l0.1-0.1c0.5-0.4,1-0.8,1.4-1.3l0.3-0.3c0.4-0.5,0.7-0.9,1.1-1.4c13.8-22.9,58.5-84.3,99.4-93.1
		c45.1-9.7,65.7,30.1,66.5,31.8c0.1,0.2,0.2,0.3,0.3,0.4c0.2,0.3,0.4,0.7,0.6,1c0.2,0.3,0.4,0.6,0.6,0.8c0.2,0.3,0.5,0.5,0.7,0.8
		c0.3,0.3,0.5,0.5,0.8,0.7c0.3,0.2,0.6,0.4,0.9,0.6c0.3,0.2,0.6,0.4,0.9,0.5c0.3,0.2,0.7,0.3,1,0.4c0.3,0.1,0.7,0.3,1,0.4
		c0.3,0.1,0.7,0.2,1,0.2s0.8,0.1,1.2,0.2c0.2,0,0.4,0.1,0.5,0.1s0.3,0,0.5,0c0.8,0,1.5-0.1,2.3-0.3c0.3-0.1,0.6-0.2,1-0.3
		s0.8-0.3,1.2-0.4c0.1-0.1,0.3-0.1,0.4-0.1s0.3-0.2,0.4-0.3c0.4-0.2,0.7-0.4,1.1-0.7c0.3-0.2,0.5-0.4,0.8-0.6
		c0.3-0.3,0.6-0.5,0.8-0.8s0.5-0.5,0.7-0.8s0.4-0.6,0.6-0.9c0.2-0.3,0.4-0.6,0.5-0.9c0.2-0.3,0.3-0.7,0.5-1c0.1-0.3,0.2-0.7,0.3-1
		c0.1-0.3,0.2-0.7,0.3-1c0.1-0.4,0.1-0.8,0.1-1.2c0-0.2,0.1-0.4,0.1-0.5c0.1-1.9,2-46.6,47.5-56.4c49.1-10.6,128.1,43.4,128.9,43.9
		c0.5,0.3,1,0.6,1.5,0.9l0.4,0.2c0.6,0.2,1.2,0.4,1.8,0.6h0.2c0.2,0,0.4,0.1,0.6,0.1l0.4,0.1c0.3,0,0.6,0.1,1,0.1h0.3
		c0.3,0,0.7,0,1,0h0.2c0.4,0,0.8-0.1,1.2-0.2h0.1h0.1c0.1,0,0.3-0.1,0.4-0.1s0.5-0.1,0.7-0.2l0.2-0.1l0.5-0.2l0.8-0.4l0.5-0.3
		c0.3-0.2,0.5-0.3,0.8-0.5l0.4-0.3c0.3-0.2,0.6-0.5,0.9-0.8c0.1-0.1,0.1-0.1,0.2-0.2c0.3-0.3,0.7-0.6,0.9-1l0.3-0.4
		c0.2-0.3,0.4-0.5,0.5-0.8s0.2-0.3,0.3-0.5s0.3-0.6,0.4-0.9s0.1-0.3,0.2-0.5s0.1-0.1,0.1-0.2c0.7-2,15.1-42.4,48.8-49.6V85.9
		l-15.8,83c-7.1,2.9-13.7,6.8-19.6,11.6c-11.6,9.7-20.9,21.8-27.3,35.5c0,0,0.1,1.8-4-0.7c-26.8-16.3-87.4-48.4-132.6-38.6
		c-34.1,7.4-51.7,30.6-59.6,51.6c-1.2,2.9-3.1,0.5-3.1,0.5c-9.1-11.7-23.6-18.8-23.6-18.8c-13.5-5.8-29.8-8.3-48.8-4.2
		c-45.2,9.7-87.1,63.9-104.9,89.8l0,0c-1.1,1.4-2.6,1.7-3.1,1.2c-18.5-15.5-36.7-19.7-39.2-20.2l0.3,0.4
		c-10.6-2.9-21.6-3.4-32.4-1.7l-55.1-78.5l111.6,38.5c5.9,2,12.4-1.1,14.4-7c0.7-1.9,0.8-4,0.4-6l-24.1-115.5l114.5,83.7
		c5.1,3.7,12.2,2.6,15.8-2.5c1-1.4,1.7-2.9,2-4.6l28.5-152.5l88.8,127.3c3.6,5.1,10.6,6.4,15.8,2.8c1.4-1,2.6-2.2,3.4-3.7
		l69.9-123.4L500,149c1.4,6.1,7.4,10,13.5,8.6c2-0.4,3.8-1.4,5.3-2.8L602.4,76V44.8l-84.6,79.8L493.7,16C492.3,9.5,487,4.9,480,3.8
		c-8-1.2-15.9,2.4-19.6,9l-66.6,117.6L307.4,6.6c-3.7-5.3-10.5-7.7-17.3-6.2s-12,6.5-13.2,12.8l-27.7,148.4L140.1,81.9
		c-6.1-4.5-14.8-4.6-21.6-0.2c-6,3.8-8.9,10.3-7.5,16.7l22.7,109L23,169.2c-7.3-2.5-15.3-0.1-20,6c-3.9,5-4,11.9-0.4,17.1l63.8,90.9
		c-3,1.7-6,3.5-8.8,5.5c-40.6,29.4-19.2,87-6.3,121.4c3.2,8.6,7.1,19.1,7.6,23.5c-0.8,1.1-1.8,2.4-2.8,3.9
		C41,458-4.9,520.5,3.9,610.5c0.6,6.1,6,10.6,12.2,10.1c2.2-0.2,4.2-1,5.9-2.4l25.3-20.3c-6.5,36-11.6,97,10.5,156.9
		c2.1,5.8,8.6,8.7,14.3,6.6c2.1-0.8,4-2.2,5.3-4.1l9.5-13.7c0.9,6.7,2.1,14.3,3.8,22.6h23.1C106.4,732.5,107.2,711.7,107.2,711.2z"
		/>
	<path class="st1" d="M533.8,310c-17.8-6.4-84.3-26.7-120.3-23.9c3.4-12.4,8.3-23.7,16.8-29.3c7.3-4.7,17.2-5.5,30.3-2.4
		c6,1.5,12-2.2,13.5-8.1c1.5-6-2.2-12-8.1-13.5c0,0-0.1,0-0.1,0c-19.1-4.6-35.2-2.8-47.7,5.4c-22,14.3-27.3,43.8-31.5,67.5
		c-1.4,7.8-2.7,15.3-4.5,20.5c-5.1,15.5-10.1,21.6-12.4,23.8c-3-1-10.1-4.5-21.1-16.6c-3.7-4-8-10.2-12.5-16.8
		c-13.6-19.8-30.6-44.5-56.5-48.5c-14.8-2.3-30.1,2.7-45.7,14.8c-4.9,3.7-5.9,10.7-2.2,15.6c3.7,4.9,10.7,5.9,15.6,2.2
		c0.1-0.1,0.2-0.1,0.3-0.2c10.7-8.3,20-11.7,28.6-10.3c10.1,1.6,19.2,9.8,27.4,19.8c-33.9,12.3-86.2,58.2-99.8,71.3
		c-33.2,32.3-33.7,67.8-31.3,101.5c0.3,6.3,0.2,12.6-0.3,18.9c-14.7,8.4-61.9,41.3-71.5,122.3c-0.7,6.1,3.6,11.7,9.7,12.4
		c0,0,0,0,0,0c1.2,0.1,2.5,0.1,3.6-0.2c4.7-1,8.2-4.9,8.7-9.6c6.2-52.4,29.7-81.2,46.2-95.4c-0.3,2.3-0.6,4.5-0.9,6.8
		c-2.3,18-4.3,34.2-4.2,46.8c-0.1,4.3-1.5,57.3,12.8,109.3c6.8,24.8,15.8,49,27,72.2h25c-12.1-23-22.6-49.6-30.4-78.2
		c-7.1-25.7-10.1-52.1-11.3-71.8c11.2,3.1,24.9,3.5,36.5,3.4c11.6-0.1,22.8-0.9,31.2-1.7c-3.8,48.2,6.2,86.6,28.2,106.8
		c7,6.4,15.4,11.1,24.6,13.7c0.4,5.5,1.2,10.9,2.4,16.3c0.3,2.8,0.8,6.6,1.5,11.3h25.8c-2.3-5-4.1-10.1-5.3-15.5
		c-0.3-2.1-0.4-3.3-0.4-3.4c-0.1-1.2-0.5-2.4-1-3.5c-0.1-0.9-0.3-1.8-0.4-2.7c5.4-0.2,10.8-0.9,16-2.1c52.1-11.2,81.5-45.4,93.7-63
		c18.3,11.1,59.2,30.1,111.3,18.9c5.3-1.1,10.5-2.7,15.5-4.7c0.3,0.8,0.5,1.6,0.7,2.5c0,1.3,0.1,2.5,0.5,3.7c0,0.1,0.5,1.4,1.2,3.7
		c2.6,13.4,2.7,30.7-6.9,46.8c-4.2,7.1-11.6,13.6-20.5,19.3h29.6c4.1-3.9,7.7-8.4,10.7-13.2c0.2-0.3,0.3-0.6,0.5-0.9
		c1,4.5,1.9,9.2,2.8,14.1h17v-28.7c-4.7-20.4-9.1-35.5-11.5-43c-1.1-5.4-2.6-10.7-4.5-15.9c6.8-5.7,12.3-12.9,16.1-21v-70
		c-4.5-14.1-10.4-27.7-17.6-40.6c5-1.7,11.1-3.9,17.6-6.5v-24.1c-12.2,5.2-24.7,9.8-37.4,13.6c-5.9,1.8-9.3,8-7.5,13.9
		c0.3,0.9,0.7,1.8,1.2,2.7c24.7,40.1,33.7,77.7,23.9,100.7c-3.2,7.5-8.7,13.8-15.6,18c-0.8,0.4-1.6,0.8-2.3,1.4
		c-5.7,3.1-11.8,5.3-18.1,6.5c-50.2,10.8-89.2-12-100-19.3l-8.3-38.3c2.1-3.9,12.1-12.2,46.7-29.9c7-3.6,11.6-7.7,14.6-11.8
		c0.1-0.1,0.2-0.3,0.3-0.4l0.4-0.5c0.1-0.1,0.2-0.3,0.3-0.4c2.3-3.5,3.7-7.4,4.2-11.5c2-18.2-15.4-33.2-17.4-34.9
		c-4.9-3.8-11.9-2.9-15.6,2c-3.6,4.6-3,11.2,1.4,15.1c3.4,2.8,7.5,7.9,9,12.1c-44.9-0.2-89.3,9.4-130.2,28
		c-0.4-4.4,1.3-10.8,3.2-14.7c2.7-5.5,0.4-12.2-5.1-14.9c-5.5-2.7-12.2-0.4-14.9,5.1c-1.1,2.3-10.8,23.2-1.5,39
		c2.1,3.6,5,6.6,8.5,8.8l0.4,0.3l0.6,0.3c0.1,0.1,0.3,0.2,0.5,0.3c4.4,2.5,10.3,4.4,18.2,4.8c38.8,1.9,51.4,5.3,54.9,8l8.2,38.3
		c-6.9,11.2-32.9,48-83.2,58.8c-6.3,1.4-12.8,1.9-19.2,1.5c-0.9-0.2-1.8-0.3-2.7-0.3c-8.1-1-15.6-4.5-21.6-10
		c-18.4-16.9-25.8-54.9-19.7-101.6c0.8-6.1-3.6-11.7-9.7-12.4c-1-0.1-1.9-0.1-2.9,0c-35.4,4.8-72.5,3.9-78.9-2
		c-1.8-9.9,1-32.1,3.5-51.7c2.7-21.3,5.5-43.4,4.4-59.5c-2.2-30.8-1.8-58.3,24.6-83.9c36.7-35.7,87-68.9,98.3-68.1l0.1,0.1
		c5,7.2,9.6,14,14.4,19.2c22.8,24.9,37.2,25,42.4,23.9s18.3-7.2,28.8-39.2c2.2-6.7,3.6-14.8,5.2-23.4c0-0.1,0-0.1,0-0.2
		c9.9-5.4,69.5,4.2,117.6,21.6c34.6,12.5,46.3,37.4,57,66.4c4.1,11,11.3,24,19.3,37.3v-49.4C590.9,355,575.3,325,533.8,310z"/>
	<path class="st1" d="M576.8,249.7c-0.3,4.4,2,8.6,6,10.6l19.7,10.3v-25.2l-2.2-1.1c0.6-2.1,1.3-4.2,2.2-6.2v-29.6
		c-3.5,1.3-6.8,3.3-9.7,5.7C578.7,226.2,576.9,247.3,576.8,249.7z"/>
	<path class="st1" d="M299,451.7c-7.9-5.7-17.5-7.4-27.8-4.9c-35.3,8.5-46.5,31.5-47,32.5c-2.6,5.6-0.2,12.2,5.4,14.8
		c1.8,0.8,3.7,1.2,5.7,1c28.1-2.4,57.9-0.1,63,4.9c2.3,4.6,7.4,7.1,12.4,6l0.4-0.1c5.3-1.4,8.8-6.3,8.3-11.8
		C319,491.2,316.2,464.1,299,451.7z"/>
	<path class="st1" d="M110.6,318.1c-8.8-2.5-17.9-1.4-26.5,3.5c-5.4,3-7.2,9.8-4.2,15.2c3,5.4,9.8,7.2,15.2,4.2l0,0
		c4.3-2.5,7.3-2,9.2-1.5c4.6,1.3,8.8,5.4,11.9,9.1l-18.4,23.6c-3.9,4.7-3.3,11.8,1.5,15.7s11.8,3.3,15.7-1.5
		c0.1-0.2,0.3-0.3,0.4-0.5l23.4-29.9c2.7-3.5,3.1-8.2,1.1-12.1C138.7,341.8,128.4,323.2,110.6,318.1z"/>
</g>
</svg>
