<svg id="Capa_1" data-name="Capa 1" xmlns="http://www.w3.org/2000/svg" viewBox="0 0 346.44 42.89"><defs><style>.cls-1,.cls-2{fill:#221e20;}.cls-2,.cls-3,.cls-4,.cls-5,.cls-6,.cls-7,.cls-8{fill-rule:evenodd;}.cls-3{fill:#32a8e0;}.cls-4{fill:#5aa253;}.cls-5{fill:#e22786;}.cls-6{fill:#70358b;}.cls-7{fill:#e32737;}.cls-8{fill:#72353e;}.cls-9{fill:#ffec00;}</style></defs><title>logo</title><path class="cls-1" d="M1141.72,496.37v39h-8.15v-5.66h-13.4l-.3.44-3.58,5.22h-8.69l-9-11.84-1.8-2.37V535.4h-8.15v-39h12.66c5.52,0,8.63.83,11.49,3a12.25,12.25,0,0,1,4.67,9.92c0,5.85-2.91,10-8.89,12.75l-1.15.53.78,1,3,3.87.84,1.08.77-1.12,21.42-31.07h7.46m-44.91,20.18h4.75c4.77,0,7.4-2.28,7.4-6.42,0-3.09-1.29-6.78-7.4-6.78h-4.75v13.2m27.34,7.44h9.42V510.22l-1.83,2.67-6.52,9.54-1.07,1.56m18.57-28.62h-9L1112,526.87l-3-3.88c6.33-2.89,9.47-7.44,9.47-13.66a13.17,13.17,0,0,0-5-10.7c-3-2.34-6.27-3.26-12.11-3.26h-13.66v41h10.15V524.16l9.29,12.24h9.72l3.87-5.66h11.88v5.66h10.15v-41Zm-44.91,20.18v-11.2h3.75c4.25,0,6.4,1.91,6.4,5.78,0,3.57-2.15,5.42-6.4,5.42ZM1126,523l6.53-9.53V523Z" transform="translate(-872.39 -494.44)"/><path class="cls-1" d="M1180.74,496.37v39h-8.15v-39h8.15m1-1h-10.15v41h10.15v-41Z" transform="translate(-872.39 -494.44)"/><path class="cls-1" d="M1217.19,496.37l-9.65,19-.23.46.23.45,9.66,19.16h-8.62l-5.93-13.63-.91-2.09-.92,2.09-6,13.63h-8.53l9.75-19.16.23-.45-.23-.46-9.74-19h8.06l6.49,13.65.91,1.93.9-1.94,6.31-13.64h8.24m1.63-1h-10.51l-6.58,14.22L1195,495.37h-10.33l10.49,20.43-10.49,20.61h10.81l6.28-14.23,6.19,14.23h10.9l-10.39-20.61,10.39-20.43Z" transform="translate(-872.39 -494.44)"/><path class="cls-1" d="M1167.68,496.37V504h-12.61v7.78H1165v6.61h-9.91v17h-8.15v-39h20.76m1-1h-22.76v41h10.15v-17H1166v-8.61h-9.91V505h12.61v-9.66Z" transform="translate(-872.39 -494.44)"/><path class="cls-1" d="M1067.11,495.51c6.93,0,11.71,2.17,16.3,7.46l-4.11,6.79A13.61,13.61,0,0,0,1068,504l-1,0a11.77,11.77,0,0,0-11.21,12.2,11.61,11.61,0,0,0,11.23,11.51c.21,0,.43,0,.65,0a11.8,11.8,0,0,0,9.47-4.7l1.29-1.62h-12.09v-6.61h15.85l5.37,0c-.56,9.12-4.3,14-5.91,15.73a19.7,19.7,0,0,1-14.46,5.66,20.12,20.12,0,0,1-19.85-20.34c0-6.15,1.91-11,5.85-14.73a19.93,19.93,0,0,1,13.88-5.68m0-1a20.84,20.84,0,0,0-14.58,6c-4.19,4-6.15,9-6.15,15.44,0,11.69,9.41,21.34,20.85,21.34a20.78,20.78,0,0,0,15.16-6c2.37-2.51,5.95-8.12,6.26-17.43l-6.41,0h-16.86v8.61h11a10.87,10.87,0,0,1-8.69,4.32h-.6a10.68,10.68,0,0,1-10.28-10.52c0-6.28,4.19-10.77,10.28-11.2l.92,0c4.7,0,8.6,2.22,11.32,6.61l5.29-8.73c-4.92-5.91-10.09-8.37-17.53-8.37Z" transform="translate(-872.39 -494.44)"/><circle class="cls-1" cx="21.4" cy="21.4" r="21.4"/><rect class="cls-1" x="75.84" y="1.65" width="9.6" height="40.17"/><polygon class="cls-2" points="137.42 1.81 151.57 23.94 151.57 11.05 146.47 11.05 146.47 1.81 161.52 1.81 161.52 41.81 151.03 41.81 137.42 20.52 137.42 41.81 127.52 41.81 127.52 1.81 137.42 1.81"/><path class="cls-2" d="M938.05,512.42c-4.38-1.85-5.58-2.81-5.58-4.43s1.26-2.52,3.66-2.52h2.22v-9.29h-2.16c-4.74,0-8.4,1.14-10.85,3.41a12.38,12.38,0,0,0-3.72,8.82c0,4.25,2.16,7.43,6.71,9.77,1.38.72,3.6,1.8,5,2.4,2.76,1.2,2.82,1.2,3.6,1.8a3.78,3.78,0,0,1,1.44,2.94,3.39,3.39,0,0,1-3.54,3.48c-2,0-3.3-1.44-3.48-3.72H921c-.12,6.83,5.46,11.93,13,11.93,4.08,0,8.16-1.2,10.44-3.12a13,13,0,0,0,4-6.18,12.52,12.52,0,0,0,0-5.15c-1.28-5.53-5.39-8-10.37-10.14" transform="translate(-872.39 -494.44)"/><path class="cls-2" d="M978.75,495a21.16,21.16,0,1,0,21.16,21.16A21.16,21.16,0,0,0,978.75,495m0,32.51h0a11.35,11.35,0,1,1,11.34-11.35A11.35,11.35,0,0,1,978.75,527.52Z" transform="translate(-872.39 -494.44)"/><rect class="cls-1" x="166.53" y="33.41" width="8.17" height="8.17"/><path class="cls-3" d="M900.3,525.41l-5-19.37h0l2.81,10.88a6.77,6.77,0,0,1,.2,1.92,5.18,5.18,0,0,1-2.95,4.38l.56,2.19a7.29,7.29,0,0,1,.21,1.92,5.2,5.2,0,0,1-3,4.41,5.2,5.2,0,0,0,7.39-4.41,6.77,6.77,0,0,0-.2-1.92" transform="translate(-872.39 -494.44)"/><path class="cls-4" d="M896.13,527.33a7.29,7.29,0,0,0-.21-1.92l-.56-2.19a5.13,5.13,0,0,1-2.25.52,5.26,5.26,0,0,1-2.24-.51l-.57,2.18a6.77,6.77,0,0,0-.2,1.92,3.24,3.24,0,1,0,6,0" transform="translate(-872.39 -494.44)"/><path class="cls-5" d="M893.11,514.52,895.3,506l-2.19-8.49-5,19.37a.5.5,0,0,0,0,.12l2.83-11Z" transform="translate(-872.39 -494.44)"/><path class="cls-6" d="M895.36,523.22a5.18,5.18,0,0,0,2.95-4.38,6.77,6.77,0,0,0-.2-1.92L895.3,506l-2.19,8.48Z" transform="translate(-872.39 -494.44)"/><path class="cls-7" d="M887.91,518.84a5.2,5.2,0,0,0,3,4.39l2.24-8.71L890.92,506l-2.83,11a6.45,6.45,0,0,0-.18,1.8" transform="translate(-872.39 -494.44)"/><path class="cls-8" d="M890.87,523.23a5.26,5.26,0,0,0,2.24.51,5.13,5.13,0,0,0,2.25-.52l-2.25-8.7Z" transform="translate(-872.39 -494.44)"/><path class="cls-9" d="M893.12,534.72a7.39,7.39,0,0,0,7.39-7.39v-.07a.17.17,0,0,1,0,.07,5.21,5.21,0,0,1-10.4,0,6.77,6.77,0,0,1,.2-1.92l.57-2.18a5.23,5.23,0,0,1-2.12-1.86,5.15,5.15,0,0,1-.84-2.53,6.45,6.45,0,0,1,.18-1.8l-2.16,8.37a7.29,7.29,0,0,0-.21,1.92A7.39,7.39,0,0,0,893.12,534.72Z" transform="translate(-872.39 -494.44)"/></svg>