<svg id="Capa_1" data-name="Capa 1" xmlns="http://www.w3.org/2000/svg" viewBox="0 0 969.27 516.39"><defs><style>.cls-1,.cls-2{fill:#fff;}.cls-1,.cls-3,.cls-4,.cls-5,.cls-6,.cls-7,.cls-8{fill-rule:evenodd;}.cls-3{fill:#32a8e0;}.cls-4{fill:#5aa253;}.cls-5{fill:#e22786;}.cls-6{fill:#70358b;}.cls-7{fill:#e32737;}.cls-8{fill:#72353e;}.cls-9{fill:#ffec00;}</style></defs><title>logo-footer</title><path class="cls-1" d="M235.07,282.54h76.76c32.84,0,51.16,5.17,68.11,18.33,18.68,14.86,28.36,35.6,28.36,60.16,0,34.92-17.65,60.5-53.26,76.75L372,459.57,494,282.54h50.49V513.17H487.47V481.36H420.74L399,513.17H344.33l-52.22-68.81v68.81h-57ZM313.21,396h0c23.85,0,35.94-10.38,35.94-30.44,0-21.78-12.09-32.5-35.94-32.5h-21.1V396ZM487.47,384.2h0l-36.66,53.58h36.66Z" transform="translate(-3.03 -1.61)"/><rect class="cls-2" x="703.79" y="280.93" width="57.05" height="230.61"/><polygon class="cls-1" points="777.14 280.93 835.2 280.93 873.19 360.88 910.19 280.93 969.27 280.93 910.84 395.78 969.27 511.61 907.99 511.61 873.19 431.65 837.9 511.61 777.14 511.61 836.05 395.78 777.14 280.93"/><polygon class="cls-1" points="616.58 416.12 672.24 416.12 672.24 367.72 616.58 367.72 616.58 335.22 687.45 335.22 687.45 280.93 559.53 280.93 559.53 511.56 616.58 511.56 616.58 500.15 616.58 416.12"/><path class="cls-1" d="M204.61,386.28H109.87v48.4h61.89c-13.48,16.93-31.81,25.24-52.21,24.2-32.15-1.38-57.74-27.66-57.74-59.12,0-35.27,23.51-60.52,57.74-62.93,28.71-1.74,52.56,10.71,68.82,37l29.73-49.11c-27.67-33.18-56.71-47-98.55-47A117.38,117.38,0,0,0,37.6,311.24C14.07,333.71,3,362.07,3,398c0,65.69,52.91,120,117.22,120,34.13,0,62.38-11.15,85.19-33.46,13.35-14.09,33.45-45.63,35.22-98Z" transform="translate(-3.03 -1.61)"/><rect class="cls-2" x="156.65" y="6.21" width="55.16" height="230.77"/><polygon class="cls-1" points="510.38 7.15 591.67 134.26 591.67 60.21 562.4 60.21 562.4 7.15 648.85 7.15 648.85 236.9 588.57 236.9 510.38 114.63 510.38 236.9 453.54 236.9 453.54 7.15 510.38 7.15"/><path class="cls-1" d="M101.21,101.65c-25.15-10.67-32-16.19-32-25.5s7.24-14.44,21-14.44h12.73V8.31H90.53c-27.21,0-48.22,6.54-62.34,19.63C15.1,40.34,6.83,59.28,6.83,78.57c0,24.46,12.39,42.72,38.58,56.15,7.93,4.14,20.68,10.34,28.94,13.77,15.85,6.9,16.18,6.9,20.66,10.34a21.73,21.73,0,0,1,8.26,16.89c0,11.71-8.6,20-20.32,20-11.36,0-18.94-8.27-20-21.36H3c-.69,39.26,31.35,68.54,74.76,68.54,23.41,0,46.83-6.88,59.93-17.91,10.68-8.95,17.9-20,23.07-35.49,0,0,3.52-14.5,0-29.62-7.37-31.77-31-45.81-59.59-58.21" transform="translate(-3.03 -1.61)"/><path class="cls-1" d="M335,1.61A121.57,121.57,0,1,0,456.56,123.17,121.57,121.57,0,0,0,335,1.61" transform="translate(-3.03 -1.61)"/><rect class="cls-2" x="703.84" y="188.68" width="46.91" height="46.9"/><path class="cls-3" d="M371.81,174.65,344.35,68.22h0L359.77,128a37.68,37.68,0,0,1,1.12,10.52,28.63,28.63,0,0,1-16.23,24.09l3.1,12a37.68,37.68,0,0,1,1.12,10.52,28.64,28.64,0,0,1-16.55,24.25,28.59,28.59,0,0,0,40.6-24.25,37.68,37.68,0,0,0-1.12-10.52" transform="translate(-3.03 -1.61)"/><path class="cls-4" d="M348.88,185.17a37.71,37.71,0,0,0-1.12-10.52l-3.1-12a28.37,28.37,0,0,1-24.66,0l-3.1,12a37.32,37.32,0,0,0-1.12,10.52,28.6,28.6,0,0,0,16.55,24.25,28.64,28.64,0,0,0,16.55-24.25" transform="translate(-3.03 -1.61)"/><path class="cls-5" d="M332.33,114.83l12-46.59-12-46.66L304.85,128c-.05.23-.09.44-.14.66L320.3,68.22Z" transform="translate(-3.03 -1.61)"/><path class="cls-6" d="M344.66,162.62a28.61,28.61,0,0,0,16.23-24.09A37.68,37.68,0,0,0,359.77,128L344.35,68.23l-12,46.6Z" transform="translate(-3.03 -1.61)"/><path class="cls-7" d="M303.74,138.53A28.64,28.64,0,0,0,320,162.64l12.33-47.81-12-46.61-15.6,60.45a37.59,37.59,0,0,0-1,9.86" transform="translate(-3.03 -1.61)"/><path class="cls-8" d="M320,162.64a28.37,28.37,0,0,0,24.66,0l-12.33-47.79Z" transform="translate(-3.03 -1.61)"/><path class="cls-9" d="M332.35,225.78A40.61,40.61,0,0,0,373,185.17c0-.13,0-.25,0-.38,0,.13,0,.26,0,.38a28.63,28.63,0,0,1-57.15,0,38,38,0,0,1,1.11-10.52l3.11-12a28.75,28.75,0,0,1-11.62-10.2,28.25,28.25,0,0,1-4.64-13.91,37.59,37.59,0,0,1,1-9.86l-11.86,46a38.07,38.07,0,0,0-1.12,10.52A40.62,40.62,0,0,0,332.35,225.78Z" transform="translate(-3.03 -1.61)"/></svg>